<svg xmlns="http://www.w3.org/2000/svg" width="500" zoomAndPan="magnify" viewBox="0 0 375 374.999991" height="500" preserveAspectRatio="xMidYMid meet" version="1.2"><rect width="100%" height="100%" fill="#4a90e2" /><defs><clipPath id="5824002ce5"><path d="M 45 47 L 370.929688 47 L 370.929688 375 L 45 375 Z M 45 47 " /></clipPath></defs><g id="d5c4ad2d94"><g clip-rule="nonzero" clip-path="url(#5824002ce5)"><path style=" stroke:none;fill-rule:nonzero;fill:#ffffff;fill-opacity:1;" d="M 366.378906 378.914062 C 364.78125 378.914062 363.300781 377.886719 362.796875 376.277344 C 353.175781 345.496094 334.394531 298.746094 299.527344 250.753906 C 297.070312 247.964844 267.203125 213.964844 258.777344 199.933594 C 249.859375 185.070312 242.597656 170.167969 244.050781 138.207031 C 245.386719 108.8125 239.351562 87.726562 225.597656 73.726562 C 212.5625 60.445312 192.449219 54.097656 165.824219 54.816406 C 155.492188 55.105469 145.667969 58.644531 138.160156 64.78125 C 137.191406 65.578125 136.28125 66.390625 135.464844 67.210938 C 135.289062 67.382812 135.09375 67.542969 134.890625 67.675781 C 134.367188 68.03125 121.90625 76.3125 110.511719 82.03125 C 108.6875 83.15625 94.46875 91.492188 75.988281 91.152344 C 73.953125 91.117188 71.96875 90.761719 70.105469 90.09375 C 65.046875 88.296875 60.613281 88.703125 57.613281 91.230469 C 54.367188 93.964844 53.082031 98.847656 54.082031 104.621094 C 54.214844 105.386719 54.203125 106.183594 54.035156 106.929688 C 53.546875 109.121094 51.542969 120.726562 59.832031 133.351562 C 69.621094 148.261719 89.566406 158.730469 119.125 164.464844 C 120.839844 164.628906 130.238281 165.847656 136.140625 172.691406 C 139.6875 176.804688 141.257812 182.027344 140.8125 188.203125 L 140.8125 220.714844 C 140.8125 222.789062 139.128906 224.472656 137.054688 224.472656 C 134.980469 224.472656 133.296875 222.789062 133.296875 220.714844 L 133.296875 188.0625 C 133.296875 187.964844 133.296875 187.867188 133.304688 187.777344 C 133.628906 183.539062 132.699219 180.214844 130.441406 177.601562 C 126.160156 172.625 118.402344 171.941406 118.328125 171.933594 C 118.179688 171.925781 118.027344 171.902344 117.886719 171.875 C 86.15625 165.75 64.511719 154.175781 53.539062 137.476562 C 43.957031 122.851562 45.949219 109.015625 46.640625 105.628906 C 45.265625 97.269531 47.5 89.945312 52.78125 85.488281 C 57.832031 81.234375 65.0625 80.332031 72.628906 83.015625 C 73.734375 83.40625 74.914062 83.617188 76.136719 83.636719 C 93.191406 83.96875 106.539062 75.65625 106.671875 75.574219 C 106.777344 75.507812 106.890625 75.445312 107.003906 75.386719 C 117.074219 70.351562 128.464844 62.917969 130.433594 61.621094 C 131.351562 60.71875 132.351562 59.824219 133.410156 58.957031 C 142.195312 51.765625 153.640625 47.625 165.628906 47.304688 C 194.425781 46.507812 216.410156 53.628906 230.972656 68.457031 C 246.265625 84.03125 253 106.949219 251.5625 138.542969 C 250.203125 168.460938 256.652344 181.769531 265.226562 196.066406 C 273.472656 209.808594 304.96875 245.550781 305.28125 245.914062 C 305.359375 246.003906 305.433594 246.09375 305.5 246.191406 C 341.039062 295.054688 360.171875 342.683594 369.972656 374.039062 C 370.589844 376.023438 369.484375 378.125 367.507812 378.742188 C 367.125 378.863281 366.75 378.914062 366.378906 378.914062 Z M 198.160156 172.941406 C 204.121094 172.640625 215.132812 171.242188 221.878906 165.34375 C 234.519531 154.28125 241.886719 112.59375 234.183594 95.65625 C 233.324219 93.761719 231.09375 92.925781 229.207031 93.792969 C 227.320312 94.648438 226.488281 96.878906 227.34375 98.765625 C 233.640625 112.625 227.125 150.769531 216.933594 159.683594 C 209.058594 166.574219 187.589844 167.15625 176.699219 162.570312 C 173.082031 161.050781 170.0625 159.046875 167.71875 156.617188 C 158.851562 147.433594 160.316406 132.726562 163.109375 122.011719 C 167.199219 106.328125 174.910156 91.207031 185.417969 78.289062 C 186.722656 76.679688 186.484375 74.3125 184.867188 73.003906 C 183.257812 71.695312 180.890625 71.9375 179.585938 73.554688 C 168.410156 87.304688 160.195312 103.402344 155.835938 120.125 C 151.132812 138.167969 153.371094 152.597656 162.308594 161.847656 C 165.359375 165.011719 169.222656 167.589844 173.78125 169.507812 C 179.164062 171.769531 186.714844 173.039062 194.523438 173.039062 C 195.734375 173.03125 196.953125 173 198.160156 172.941406 Z M 154.632812 85.359375 C 156.097656 83.894531 156.097656 81.511719 154.632812 80.046875 C 153.167969 78.582031 150.785156 78.582031 149.320312 80.046875 C 146.351562 83.015625 143.347656 84.472656 140.371094 84.375 C 135.695312 84.226562 132.203125 80.347656 132.105469 80.242188 C 130.75 78.679688 128.390625 78.503906 126.820312 79.851562 C 125.242188 81.203125 125.0625 83.570312 126.414062 85.148438 C 126.640625 85.414062 132.011719 91.574219 140.03125 91.882812 C 140.25 91.890625 140.460938 91.898438 140.671875 91.898438 C 145.601562 91.898438 150.289062 89.703125 154.632812 85.359375 Z M 154.632812 85.359375 " /></g><path style=" stroke:none;fill-rule:nonzero;fill:#ffffff;fill-opacity:1;" d="M 138.535156 378.914062 C 138.125 378.914062 137.710938 378.847656 137.296875 378.707031 C 135.335938 378.023438 134.304688 375.878906 134.988281 373.917969 C 136.824219 368.65625 138.183594 363.246094 139.039062 357.828125 C 139.714844 353.515625 138.347656 343.804688 136.550781 340.21875 C 132.878906 332.871094 126.730469 329.054688 121.199219 326.289062 C 115.503906 323.4375 102.929688 322.425781 93.0625 322.425781 C 90.019531 322.425781 84.503906 320.921875 81.730469 310.882812 C 81.460938 309.90625 80.894531 308.550781 79.738281 307.628906 C 73.769531 302.886719 71.367188 290.710938 70.945312 288.320312 C 68.148438 279.105469 78.867188 272.394531 85.871094 269.789062 C 93.617188 265.738281 97.152344 252.097656 97.855469 247.152344 C 97.871094 247.039062 97.894531 246.933594 97.917969 246.824219 C 100.21875 237.058594 107.933594 229.003906 117.585938 226.296875 C 122.453125 224.929688 126.859375 225.132812 131.121094 225.328125 C 132.601562 225.398438 134.125 225.464844 135.644531 225.464844 C 140.746094 225.464844 147.335938 223.601562 149.484375 220.144531 C 149.695312 219.804688 165.214844 194.742188 165.214844 194.742188 C 166.554688 192.578125 168.769531 191.144531 171.296875 190.8125 C 173.820312 190.472656 176.332031 191.277344 178.195312 193.015625 C 184.167969 198.589844 193.96875 212.230469 192.421875 240.886719 C 192.292969 243.222656 193.292969 245.476562 195.15625 247.070312 C 234.347656 280.503906 250.339844 341.25 256.382812 374.480469 C 256.75 376.527344 255.398438 378.480469 253.359375 378.847656 C 251.316406 379.222656 249.363281 377.863281 248.996094 375.828125 C 243.132812 343.578125 227.703125 284.714844 190.285156 252.789062 C 186.625 249.664062 184.664062 245.183594 184.921875 240.488281 C 185.394531 231.640625 185.199219 209.839844 173.070312 198.515625 C 172.796875 198.257812 172.496094 198.246094 172.292969 198.265625 C 172.089844 198.296875 171.804688 198.394531 171.609375 198.710938 C 171.609375 198.710938 156.09375 223.773438 155.882812 224.117188 C 151.523438 231.125 141.121094 232.988281 135.660156 232.988281 C 133.96875 232.988281 132.351562 232.910156 130.789062 232.84375 C 126.789062 232.664062 123.332031 232.5 119.628906 233.542969 C 112.617188 235.503906 107.003906 241.335938 105.28125 248.40625 C 104.929688 250.683594 101.554688 270.367188 89.070312 276.605469 C 88.945312 276.671875 88.808594 276.726562 88.671875 276.777344 C 84.863281 278.175781 76.925781 282.503906 78.175781 286.253906 C 78.234375 286.441406 78.289062 286.628906 78.316406 286.824219 C 79.128906 291.65625 81.558594 299.480469 84.421875 301.757812 C 86.59375 303.488281 88.171875 305.953125 88.980469 308.898438 C 89.785156 311.8125 91.28125 314.925781 93.070312 314.925781 C 99.734375 314.925781 116.15625 315.375 124.566406 319.582031 C 130.820312 322.710938 138.589844 327.496094 143.277344 336.875 C 146.015625 342.347656 147.320312 353.621094 146.472656 359.015625 C 145.546875 364.871094 144.074219 370.722656 142.097656 376.40625 C 141.542969 377.945312 140.09375 378.914062 138.535156 378.914062 Z M 131.914062 265.25 C 133.382812 263.785156 133.382812 261.402344 131.914062 259.9375 C 130.449219 258.472656 128.066406 258.472656 126.601562 259.9375 C 124.339844 262.199219 122.0625 263.296875 119.863281 263.25 C 116.382812 263.144531 113.722656 260.222656 113.640625 260.132812 C 112.285156 258.574219 109.925781 258.394531 108.355469 259.742188 C 106.777344 261.09375 106.597656 263.460938 107.949219 265.039062 C 108.429688 265.59375 112.820312 270.503906 119.523438 270.757812 C 119.710938 270.765625 119.890625 270.765625 120.070312 270.765625 C 124.273438 270.773438 128.257812 268.917969 131.914062 265.25 Z M 131.914062 265.25 " /></g></svg>